<?xml version="1.0" encoding="utf-8"?>
<!-- Generator: Adobe Illustrator 20.0.0, SVG Export Plug-In . SVG Version: 6.00 Build 0)  -->
<svg version="1.1" id="Layer_1" xmlns="http://www.w3.org/2000/svg" xmlns:xlink="http://www.w3.org/1999/xlink" x="0px" y="0px"
	 viewBox="0 0 175.8 33" style="enable-background:new 0 0 175.8 33;" xml:space="preserve">
<style type="text/css">
	.st0{fill:#CCCCCB;}
	.st1{fill:#049948;}
</style>
<g>
	<path class="st0" d="M19.7,21.3c-1,1.4-2.3,2-3.9,2c-1.8,0-3.1-0.6-3.9-1.8c-0.9-1.2-1.3-2.8-1.3-4.9c0-1,0.1-1.9,0.4-2.7
		c0.2-0.8,0.6-1.5,1.1-2.1c0.5-0.6,1-1,1.7-1.4c0.7-0.3,1.4-0.5,2.3-0.5c0.6,0,1.2,0.1,1.9,0.3c0.6,0.2,1.2,0.7,1.7,1.3V5.8H23V23
		h-3.3V21.3z M19.7,16.6c0-0.8-0.1-1.4-0.2-1.9c-0.1-0.5-0.4-0.9-0.7-1.2c-0.3-0.3-0.6-0.5-0.9-0.6c-0.3-0.1-0.7-0.1-1-0.1
		c-0.4,0-0.7,0.1-1,0.2c-0.3,0.1-0.6,0.4-0.9,0.7c-0.2,0.3-0.4,0.7-0.6,1.2c-0.1,0.5-0.2,1.1-0.2,1.8c0,0.8,0.1,1.4,0.2,1.9
		c0.1,0.5,0.3,0.9,0.6,1.2c0.2,0.3,0.5,0.5,0.8,0.7c0.3,0.1,0.7,0.2,1,0.2c0.8,0,1.5-0.2,2-0.7c0.3-0.3,0.6-0.7,0.7-1.2
		c0.2-0.5,0.2-1,0.2-1.8V16.6z"/>
	<path class="st0" d="M37.5,19.1c-0.2,1.4-0.8,2.5-1.7,3.2c-0.9,0.7-2.2,1.1-3.9,1.1c-2.1,0-3.6-0.6-4.7-1.7c-1-1.2-1.6-2.8-1.6-4.9
		c0-1.1,0.2-2,0.5-2.8c0.3-0.8,0.7-1.5,1.3-2.1c0.6-0.6,1.2-1,2-1.3s1.6-0.4,2.5-0.4c1.9,0,3.4,0.6,4.3,1.7c1,1.1,1.5,2.6,1.5,4.5
		v1.3h-8.7c0,1,0.3,1.8,0.8,2.4c0.5,0.6,1.2,0.9,2.2,0.9c1.3,0,2.1-0.6,2.4-1.7H37.5z M34.4,15.3c0-0.9-0.2-1.5-0.6-2
		c-0.4-0.5-1.1-0.7-2-0.7c-0.4,0-0.8,0.1-1.2,0.2c-0.3,0.1-0.6,0.3-0.9,0.6c-0.2,0.2-0.4,0.5-0.5,0.9C29,14.6,29,14.9,29,15.3H34.4z
		"/>
	<path class="st0" d="M38.2,10.4h3.9l2.8,8.7l2.8-8.7h3.7L46.5,23h-3.4L38.2,10.4z"/>
	<path class="st0" d="M55.5,25.9c-0.4-0.7-0.9-1.4-1.2-2.2c-0.4-0.8-0.7-1.7-0.9-2.5s-0.4-1.8-0.6-2.7s-0.2-1.9-0.2-2.8
		c0-0.9,0.1-1.9,0.2-2.8s0.3-1.8,0.6-2.7s0.6-1.7,0.9-2.5C54.6,6.8,55,6,55.5,5.3h3.2c-0.9,1.6-1.6,3.3-2,5C56.2,12,56,13.8,56,15.6
		c0,1.8,0.2,3.6,0.6,5.3c0.4,1.7,1.1,3.4,2,5H55.5z"/>
	<path class="st1" d="M60.3,10.4h3.3v1.7c0.5-0.7,1-1.2,1.6-1.6s1.3-0.5,2-0.5c0.9,0,1.7,0.2,2.2,0.6c0.6,0.4,1,0.9,1.2,1.6
		c0.6-0.8,1.2-1.3,1.8-1.7s1.3-0.5,2.1-0.5c1.3,0,2.3,0.4,2.9,1.1s1,1.9,1,3.5V23H75V15c0-0.4,0-0.8-0.1-1.1s-0.2-0.5-0.3-0.7
		c-0.1-0.2-0.3-0.3-0.5-0.3s-0.4-0.1-0.6-0.1c-0.3,0-0.6,0.1-0.9,0.2c-0.3,0.1-0.6,0.3-0.8,0.6c-0.2,0.2-0.4,0.5-0.5,0.8
		S71,15,71,15.3V23h-3.4V15c0-0.4,0-0.8-0.1-1.1s-0.2-0.5-0.3-0.7c-0.1-0.2-0.3-0.3-0.5-0.3c-0.2-0.1-0.4-0.1-0.6-0.1
		c-0.3,0-0.6,0.1-0.9,0.2c-0.3,0.1-0.6,0.3-0.8,0.6c-0.2,0.2-0.4,0.5-0.5,0.8c-0.1,0.3-0.2,0.7-0.2,1V23h-3.4V10.4z"/>
	<path class="st1" d="M88.7,21.4c-0.5,0.6-1.1,1-1.7,1.4c-0.6,0.4-1.4,0.5-2.4,0.5c-0.6,0-1.1-0.1-1.6-0.2c-0.5-0.1-0.9-0.4-1.3-0.7
		c-0.4-0.3-0.7-0.7-0.9-1.2c-0.2-0.5-0.3-1-0.3-1.7c0-0.9,0.2-1.6,0.6-2.1c0.4-0.5,0.9-1,1.5-1.3c0.6-0.3,1.3-0.5,2.1-0.6
		c0.8-0.1,1.6-0.2,2.4-0.2l1.6-0.1v-0.6c0-0.8-0.2-1.3-0.6-1.6c-0.4-0.3-0.9-0.4-1.5-0.4c-1.3,0-2.1,0.5-2.3,1.5l-3.1-0.3
		c0.2-1.3,0.8-2.3,1.7-2.8c0.9-0.6,2.2-0.9,3.7-0.9c1,0,1.8,0.1,2.4,0.3c0.7,0.2,1.2,0.6,1.6,1c0.4,0.4,0.7,1,0.9,1.6
		c0.2,0.6,0.3,1.3,0.3,2.1V23h-3.2V21.4z M88.6,17.4l-1.5,0.1c-0.7,0-1.3,0.1-1.7,0.2s-0.8,0.3-1,0.4S84,18.4,84,18.7
		c-0.1,0.2-0.1,0.5-0.1,0.7c0,0.4,0.1,0.7,0.4,1c0.3,0.2,0.7,0.4,1.2,0.4c0.9,0,1.6-0.2,2.1-0.6c0.3-0.2,0.6-0.5,0.7-0.9
		c0.2-0.3,0.3-0.8,0.3-1.3V17.4z"/>
	<path class="st1" d="M97.1,19c0.1,0.7,0.4,1.2,0.9,1.4c0.5,0.2,1.1,0.3,1.7,0.3c0.8,0,1.4-0.1,1.7-0.3c0.3-0.2,0.5-0.5,0.5-1
		c0-0.3-0.1-0.6-0.3-0.8c-0.2-0.2-0.6-0.4-1.2-0.5l-1.7-0.3c-1.5-0.2-2.7-0.7-3.4-1.2s-1.1-1.5-1.1-2.7c0-0.6,0.1-1.2,0.4-1.6
		c0.3-0.5,0.6-0.9,1.1-1.2c0.5-0.3,1.1-0.6,1.7-0.8c0.7-0.2,1.4-0.3,2.2-0.3c1,0,1.8,0.1,2.5,0.3c0.7,0.2,1.2,0.5,1.6,0.8
		c0.4,0.3,0.7,0.7,1,1.2c0.2,0.5,0.4,1,0.5,1.5l-3,0.4c-0.1-0.6-0.4-1-0.8-1.3c-0.4-0.3-0.9-0.4-1.7-0.4c-0.4,0-0.8,0-1.1,0.1
		c-0.3,0.1-0.5,0.2-0.7,0.3c-0.2,0.1-0.3,0.2-0.4,0.4c-0.1,0.1-0.1,0.3-0.1,0.4c0,0.4,0.1,0.7,0.4,0.9c0.2,0.2,0.7,0.3,1.5,0.5
		l1.6,0.3c0.9,0.1,1.6,0.3,2.2,0.6c0.6,0.2,1,0.5,1.4,0.8c0.3,0.3,0.6,0.7,0.7,1.2c0.1,0.4,0.2,1,0.2,1.6c0,1.2-0.4,2.1-1.3,2.8
		c-0.9,0.7-2.3,1.1-4.2,1.1c-0.8,0-1.5-0.1-2.1-0.2s-1.3-0.4-1.8-0.7s-1-0.8-1.3-1.3c-0.3-0.6-0.5-1.3-0.6-2.1H97.1z"/>
	<path class="st1" d="M108.4,13.1h-2v-2.6h2V7.1h3.4v3.3h2.9v2.6h-2.9v5.8c0,0.7,0.1,1.1,0.4,1.3c0.3,0.2,0.6,0.3,1.1,0.3
		c0.2,0,0.5,0,0.7,0c0.2,0,0.5-0.1,0.7-0.1l0.5,2.5c-0.5,0.1-0.9,0.2-1.4,0.3c-0.4,0.1-0.9,0.1-1.3,0.1c-1.4,0-2.4-0.3-3.1-1
		c-0.7-0.7-1-1.8-1-3.3V13.1z"/>
	<path class="st1" d="M127.9,19.1c-0.2,1.4-0.8,2.5-1.7,3.2c-0.9,0.7-2.2,1.1-3.9,1.1c-2.1,0-3.6-0.6-4.7-1.7
		c-1-1.2-1.6-2.8-1.6-4.9c0-1.1,0.2-2,0.5-2.8s0.7-1.5,1.3-2.1s1.2-1,2-1.3c0.8-0.3,1.6-0.4,2.5-0.4c1.9,0,3.4,0.6,4.3,1.7
		c1,1.1,1.5,2.6,1.5,4.5v1.3h-8.7c0,1,0.3,1.8,0.8,2.4c0.5,0.6,1.2,0.9,2.2,0.9c1.3,0,2.1-0.6,2.4-1.7H127.9z M124.8,15.3
		c0-0.9-0.2-1.5-0.6-2c-0.4-0.5-1.1-0.7-2-0.7c-0.4,0-0.8,0.1-1.2,0.2c-0.3,0.1-0.6,0.3-0.9,0.6c-0.2,0.2-0.4,0.5-0.5,0.9
		s-0.2,0.7-0.2,1.1H124.8z"/>
	<path class="st1" d="M130.6,10.4h3.3v1.8c0.4-0.7,0.9-1.1,1.5-1.5s1.2-0.5,1.9-0.5c0.3,0,0.6,0,0.8,0s0.4,0.1,0.6,0.1l-0.4,3
		c-0.4-0.1-0.9-0.1-1.4-0.1c-0.4,0-0.7,0-1.1,0.1s-0.6,0.3-0.9,0.5c-0.3,0.3-0.5,0.5-0.6,0.9c-0.1,0.3-0.2,0.6-0.2,1V23h-3.4V10.4z"
		/>
	<path class="st1" d="M141.5,24.7c0.5,0.1,0.9,0.2,1.4,0.2c0.4,0,0.8-0.1,1.1-0.3c0.3-0.2,0.5-0.6,0.7-1.1l0.4-1.1l-5.2-12h3.9
		l2.9,8.2l2.7-8.2h3.7L148,23.3c-0.3,0.7-0.6,1.3-0.8,1.9s-0.5,1-0.9,1.3c-0.3,0.4-0.7,0.6-1.2,0.8c-0.5,0.2-1,0.3-1.7,0.3
		c-0.4,0-0.8,0-1.2-0.1c-0.4-0.1-0.8-0.2-1.3-0.3L141.5,24.7z"/>
	<path class="st0" d="M153.4,25.9c0.9-1.6,1.6-3.3,2-5c0.4-1.7,0.6-3.5,0.6-5.3c0-1.8-0.2-3.6-0.6-5.3c-0.4-1.7-1.1-3.4-2-5h3.2
		c0.4,0.7,0.9,1.4,1.2,2.2c0.4,0.8,0.7,1.7,0.9,2.5s0.4,1.8,0.6,2.7s0.2,1.9,0.2,2.8c0,0.9-0.1,1.9-0.2,2.8s-0.3,1.8-0.6,2.7
		s-0.6,1.7-0.9,2.5c-0.4,0.8-0.8,1.6-1.2,2.2H153.4z"/>
	<path class="st0" d="M161.9,19.1h3.3l-1.5,6.1h-2.6L161.9,19.1z M161.7,10.4h3.4v3.9h-3.4V10.4z"/>
</g>
</svg>
